<?xml version="1.0" encoding="UTF-8" standalone="no"?>
<!-- Created with Inkscape (http://www.inkscape.org/) -->

<svg
   xmlns:dc="http://purl.org/dc/elements/1.1/"
   xmlns:cc="http://creativecommons.org/ns#"
   xmlns:rdf="http://www.w3.org/1999/02/22-rdf-syntax-ns#"
   xmlns:svg="http://www.w3.org/2000/svg"
   xmlns="http://www.w3.org/2000/svg"
   xmlns:sodipodi="http://sodipodi.sourceforge.net/DTD/sodipodi-0.dtd"
   xmlns:inkscape="http://www.inkscape.org/namespaces/inkscape"
   width="60"
   height="60"
   viewBox="0 0 15.874999 15.874999"
   version="1.1"
   id="svg8"
   inkscape:version="0.92.4 5da689c313, 2019-01-14"
   sodipodi:docname="logo.svg">
  <defs
     id="defs2" />
  <sodipodi:namedview
     id="base"
     pagecolor="#ffffff"
     bordercolor="#666666"
     borderopacity="1.0"
     inkscape:pageopacity="0.0"
     inkscape:pageshadow="2"
     inkscape:zoom="0.35"
     inkscape:cx="400"
     inkscape:cy="560"
     inkscape:document-units="px"
     inkscape:current-layer="layer1"
     showgrid="false"
     fit-margin-top="0"
     fit-margin-left="0"
     fit-margin-right="0"
     fit-margin-bottom="0"
     units="px" />
  <metadata
     id="metadata5">
    <rdf:RDF>
      <cc:Work
         rdf:about="">
        <dc:format>image/svg+xml</dc:format>
        <dc:type
           rdf:resource="http://purl.org/dc/dcmitype/StillImage" />
        <dc:title></dc:title>
      </cc:Work>
    </rdf:RDF>
  </metadata>
  <g
     inkscape:label="Layer 1"
     inkscape:groupmode="layer"
     id="layer1"
     transform="translate(-46.525746,-29.22914)">
    <g
       id="g1959"
       transform="translate(38.232609,22.400011)">
      <g
         style="display:inline;fill:#0f1610;fill-opacity:1;stroke:#0f1610;stroke-opacity:1"
         transform="translate(-6.86656,-67.193595)"
         id="g5410">
        <path
           inkscape:connector-curvature="0"
           style="opacity:1;vector-effect:none;fill:#0f1610;fill-opacity:1;fill-rule:evenodd;stroke:#0f1610;stroke-width:1.5999999;stroke-linecap:butt;stroke-linejoin:miter;stroke-miterlimit:4;stroke-dasharray:none;stroke-dashoffset:0;stroke-opacity:1"
           d="m 108.57812,319.90039 -0.44335,0.15039 c 0,0 -0.17776,1.02995 -0.54297,1.1543 -0.2347,0.0799 -0.99753,-0.487 -1.98633,-0.15039 -2.43668,0.82951 -2.57206,3.93709 0.71289,4.94726 l 3.12109,0.96094 c 0.78252,0.24064 0.77886,1.16615 0.0449,1.41602 -1.43347,0.48799 -4.26758,-1.64063 -4.26758,-1.64063 l -0.44336,0.15039 1.15625,3.39844 0.44336,-0.15234 c 0,0 0.23433,-1.10549 0.6875,-1.25977 0.45176,-0.15379 1.63767,0.66473 2.69531,0.30469 1.909,-0.64988 1.90844,-4.11054 0.0195,-4.69141 l -4.20312,-1.29101 c -0.5608,-0.17246 -0.7279,-1.1488 0.25781,-1.48438 1.34615,-0.45827 3.46094,1.73633 3.46094,1.73633 l 0.44336,-0.15039 z"
           transform="scale(0.26458333)"
           id="path5400" />
        <path
           inkscape:connector-curvature="0"
           style="opacity:1;vector-effect:none;fill:#0f1610;fill-opacity:1;fill-rule:evenodd;stroke:#0f1610;stroke-width:1.5999999;stroke-linecap:butt;stroke-linejoin:miter;stroke-miterlimit:4;stroke-dasharray:none;stroke-dashoffset:0;stroke-opacity:1"
           d="m 68.695312,320.14453 c -1.704086,0.0842 -3.41553,1.81034 -3.898437,3.76758 -0.551894,2.23684 0.456588,4.95294 2.373047,5.42578 2.671037,0.65902 3.498807,-2.52289 3.787109,-3.69141 l -0.580078,-0.14257 c -0.487404,1.97546 -1.56571,3.33538 -2.529297,3.09765 -1.005876,-0.24819 -0.306214,-2.75012 0.01758,-4.0625 0.323804,-1.31239 0.882999,-3.85023 1.875,-3.60547 0.916192,0.22605 0.916016,3.4336 0.916016,3.4336 l 0.582031,0.14453 0.914063,-3.70508 -0.582032,-0.14258 c 0,0 -0.300057,0.61198 -0.603515,0.53711 -0.575501,-0.14199 -0.243555,-0.66721 -1.544922,-0.98828 -0.239558,-0.0591 -0.483122,-0.0804 -0.726563,-0.0684 z"
           transform="scale(0.26458333)"
           id="path5398" />
        <path
           inkscape:connector-curvature="0"
           style="opacity:1;vector-effect:none;fill:#0f1610;fill-opacity:1;fill-rule:evenodd;stroke:#0f1610;stroke-width:1.5999999;stroke-linecap:butt;stroke-linejoin:miter;stroke-miterlimit:4;stroke-dasharray:none;stroke-dashoffset:0;stroke-opacity:1"
           d="m 74.423828,321.71484 -0.177734,0.91602 0.773437,0.15039 -1.349609,6.92773 -0.773438,-0.15039 -0.177734,0.91602 6.871094,1.33789 0.177734,-0.91406 0.632813,-3.2461 -0.458985,-0.0879 -2.621094,2.85547 -1.232421,-0.24023 0.634765,-3.26563 0.439453,0.0859 0.691407,1.88086 c 0.355918,-0.54538 0.575754,-1.20705 0.720703,-1.95117 0.144945,-0.74413 0.189631,-1.43709 0.06445,-2.07617 l -1.347656,1.48437 -0.439454,-0.0859 0.585938,-3 1.333984,0.25977 1.378907,2.97461 0.458984,0.0898 0.507813,-2.60742 0.179687,-0.91602 -3.009766,-0.58593 z"
           transform="scale(0.26458333)"
           id="path5396" />
        <path
           inkscape:connector-curvature="0"
           style="opacity:1;vector-effect:none;fill:#0f1610;fill-opacity:1;fill-rule:evenodd;stroke:#0f1610;stroke-width:1.5999999;stroke-linecap:butt;stroke-linejoin:miter;stroke-miterlimit:4;stroke-dasharray:none;stroke-dashoffset:0;stroke-opacity:1"
           d="m 101.11133,321.96875 -6.726564,1.23047 0.08789,0.47656 0.08008,0.44141 0.742188,4.04687 0.458984,-0.084 0.640625,-4.30078 0.310547,-0.0566 1.271484,6.94336 -1.015624,0.18554 0.167968,0.91797 4.455072,-0.81641 -0.16796,-0.91601 -1.01758,0.18555 -1.271485,-6.94336 0.308594,-0.0566 2.125001,3.79492 0.45898,-0.0859 -0.82226,-4.48828 z"
           transform="scale(0.26458333)"
           id="path5392" />
        <path
           inkscape:connector-curvature="0"
           style="opacity:1;vector-effect:none;fill:#0f1610;fill-opacity:1;fill-rule:evenodd;stroke:#0f1610;stroke-width:1.5999999;stroke-linecap:butt;stroke-linejoin:miter;stroke-miterlimit:4;stroke-dasharray:none;stroke-dashoffset:0;stroke-opacity:1"
           d="m 83.996094,323.25 -0.02734,0.93164 0.943359,0.0273 -0.210937,7.05664 -0.94336,-0.0293 -0.0293,0.93359 2.734375,0.0801 0.02734,-0.93164 -0.857422,-0.0254 0.167969,-5.60547 3.738281,6.65625 1.257813,0.0371 0.08008,-2.68555 0.158203,-5.30273 0.873047,0.0273 0.02734,-0.93359 -2.732422,-0.082 -0.0293,0.93359 0.929688,0.0273 -0.113282,3.75391 -2.677734,-4.76953 -0.582031,-0.0176 -2.291016,-0.0703 z"
           transform="scale(0.26458333)"
           id="path2647" />
      </g>
      <path
         inkscape:connector-curvature="0"
         style="display:inline;opacity:1;vector-effect:none;fill:#0f1610;fill-opacity:1;fill-rule:evenodd;stroke:#0f1610;stroke-width:0.42333332;stroke-linecap:butt;stroke-linejoin:miter;stroke-miterlimit:4;stroke-dasharray:none;stroke-dashoffset:0;stroke-opacity:1"
         d="m 16.379049,9.6136 c -0.672282,0.006 -1.793188,0.166753 -2.253609,1.55236 -0.162968,0.49044 -0.04165,1.464853 0.62115,1.484146 0.443214,0.01291 1.452131,-0.536369 0.65164,-1.3286 -0.167538,-0.165809 -0.285391,-0.300916 -0.277502,-0.52555 0.01387,-0.394816 0.502576,-0.76192 1.031461,-0.748792 0.737384,0.01831 0.918609,0.798354 0.911056,1.711008 -0.0059,0.717375 -0.799406,1.359514 -1.571997,1.871205 -1.365882,0.904626 -1.292083,2.564076 -1.270207,2.99103 0.0027,0.05351 0.03794,0.258236 0.250113,0.274402 0.165679,0.01262 0.135918,-0.07197 0.145729,-0.25218 0.0261,-0.479399 0.268358,-0.510529 0.616499,-0.349851 0.402636,0.185833 1.277236,0.532879 1.743563,0.524 1.176777,-0.02241 1.758193,-1.227773 1.69292,-2.096514 -0.0342,-0.455144 -0.353494,-0.556773 -0.442867,-0.254764 -0.05635,0.190423 -0.115624,0.75911 -1.024227,0.764812 -1.076462,0.0068 -0.833589,-0.545732 -2.0314,-0.434083 -0.170082,0.01585 -0.181621,-0.05722 -0.112655,-0.170016 0.278966,-0.456278 0.515752,-0.736296 1.361674,-0.707448 1.183824,0.04037 2.409967,-0.752213 2.487187,-1.91048 C 18.983307,10.872358 18.015253,9.59895 16.379049,9.6136 Z"
         id="path5402" />
      <g
         transform="translate(-6.83015,-67.275447)"
         id="g2645"
         style="display:inline">
        <path
           style="opacity:1;vector-effect:none;fill:#f7f7ef;fill-opacity:1;fill-rule:evenodd;stroke:none;stroke-width:0.26458335px;stroke-linecap:butt;stroke-linejoin:miter;stroke-miterlimit:4;stroke-dasharray:none;stroke-dashoffset:0;stroke-opacity:1"
           d="m 22.953722,76.474411 c -0.672282,0.006 -1.793158,0.167049 -2.253579,1.552655 -0.162967,0.49044 -0.04184,1.464686 0.620956,1.48398 0.443214,0.0129 1.452386,-0.536355 0.651895,-1.328587 -0.167538,-0.16581 -0.285437,-0.30095 -0.277548,-0.525583 0.01387,-0.394817 0.502263,-0.761986 1.031148,-0.748856 0.737384,0.0183 0.91875,0.798558 0.911197,1.711211 -0.0059,0.717376 -0.799342,1.359527 -1.571933,1.871217 -1.365881,0.904628 -1.292353,2.563874 -1.270478,2.990829 0.0027,0.05351 0.0383,0.258237 0.250476,0.274405 0.165678,0.01262 0.135966,-0.07176 0.145776,-0.251967 0.0261,-0.479399 0.267985,-0.510355 0.616126,-0.349675 0.402636,0.185832 1.277317,0.532415 1.743644,0.523537 1.176777,-0.0224 1.758483,-1.227678 1.69321,-2.096417 -0.0342,-0.455145 -0.353521,-0.556477 -0.442894,-0.254469 -0.05635,0.190423 -0.115567,0.758902 -1.02417,0.764603 -1.076462,0.0068 -0.833922,-0.545883 -2.031734,-0.434234 -0.170082,0.01585 -0.181277,-0.05729 -0.112311,-0.170086 0.278966,-0.456277 0.515593,-0.7363 1.361515,-0.707454 1.183824,0.04037 2.410015,-0.752055 2.487235,-1.910321 0.07573,-1.135929 -0.892327,-2.409438 -2.528531,-2.394788 z"
           id="path865-6"
           inkscape:connector-curvature="0"
           sodipodi:nodetypes="sssssssssssssssssssss" />
        <path
           style="display:inline;opacity:1;fill:#f7f7ef;fill-opacity:1;fill-rule:nonzero;stroke:none;stroke-width:0.26458335;stroke-linecap:butt;stroke-linejoin:miter;stroke-miterlimit:4;stroke-dasharray:none;stroke-opacity:1;paint-order:normal"
           d="m 24.680696,85.18071 0.0231,0.126074 0.02137,0.116669 0.196169,1.070806 0.121784,-0.02231 0.169512,-1.137798 0.08185,-0.01499 0.336533,1.836987 -0.268816,0.04925 0.04447,0.242743 1.178564,-0.215911 -0.04447,-0.242742 -0.268815,0.04925 -0.336533,-1.836988 0.08185,-0.01499 0.561851,1.003814 0.121784,-0.02231 -0.217542,-1.187475 -0.0231,-0.126074 z"
           id="rect1072-7-3-7"
           inkscape:connector-curvature="0" />
        <path
           sodipodi:nodetypes="cccccccccccccccccccccccc"
           style="display:inline;opacity:1;fill:#f7f7ef;fill-opacity:1;fill-rule:nonzero;stroke:none;stroke-width:0.26458335;stroke-linecap:butt;stroke-linejoin:miter;stroke-miterlimit:4;stroke-dasharray:none;stroke-opacity:1;paint-order:normal"
           d="m 21.932039,85.193739 -0.0074,0.246672 0.249691,0.0075 -0.05593,1.866722 -0.249691,-0.0075 -0.0074,0.246673 0.723247,0.02167 0.0074,-0.246672 -0.226884,-0.0068 0.04443,-1.483048 0.989193,1.76091 0.332529,0.01 0.02129,-0.710502 0.04203,-1.402892 0.230742,0.0069 0.0074,-0.246672 -0.723246,-0.02167 -0.0074,0.246673 0.245832,0.0074 -0.02975,0.993058 -0.708907,-1.262084 -0.153939,-0.0046 -0.606199,-0.01816 z"
           id="rect1072-9-3-2-9-5"
           inkscape:connector-curvature="0" />
        <path
           style="display:inline;opacity:1;vector-effect:none;fill:#f7f7ef;fill-opacity:1;fill-rule:evenodd;stroke:none;stroke-width:0.26458335px;stroke-linecap:butt;stroke-linejoin:miter;stroke-miterlimit:4;stroke-dasharray:none;stroke-dashoffset:0;stroke-opacity:1"
           d="m 19.399561,84.787748 -0.04718,0.24223 0.20452,0.03984 -0.357101,1.833273 -0.20452,-0.03984 -0.04718,0.242229 1.818122,0.354149 0.04718,-0.242229 0.167212,-0.858425 -0.121526,-0.02367 -0.693333,0.755943 -0.326376,-0.06357 0.168333,-0.864189 0.116093,0.02261 0.183193,0.497675 c 0.09417,-0.144298 0.152064,-0.319118 0.190415,-0.516 0.03835,-0.196883 0.0503,-0.380653 0.01718,-0.549744 l -0.356627,0.392695 -0.116093,-0.02261 0.154606,-0.79371 0.353381,0.06883 0.364751,0.787025 0.121526,0.02367 0.134365,-0.689804 0.04718,-0.24223 -0.796015,-0.155053 z"
           id="path1127-0-3"
           inkscape:connector-curvature="0" />
        <path
           id="path1488-2-0-4-5"
           style="display:inline;opacity:1;fill:#f7f7ef;fill-opacity:1;fill-rule:nonzero;stroke:none;stroke-width:0.26458335;stroke-linecap:butt;stroke-linejoin:miter;stroke-miterlimit:4;stroke-dasharray:none;stroke-opacity:1;paint-order:normal"
           d="m 18.160126,84.581205 c -0.262467,-0.06476 -0.410349,0.606413 -0.496022,0.953649 -0.08567,0.347234 -0.270638,1.009256 -0.0045,1.074923 0.254949,0.0629 0.539905,-0.296813 0.668864,-0.819488 l 0.153636,0.03791 c -0.07628,0.309171 -0.295404,1.150762 -1.002116,0.976396 -0.507063,-0.125107 -0.773874,-0.84368 -0.627852,-1.435511 0.146022,-0.591832 0.716449,-1.103832 1.223513,-0.978724 0.34432,0.08495 0.256548,0.223804 0.408816,0.261373 0.08029,0.01981 0.159987,-0.142136 0.159987,-0.142136 l 0.153636,0.03791 -0.241845,0.98021 -0.153637,-0.03791 c 0,0 -8.6e-5,-0.84879 -0.242495,-0.908599 z"
           inkscape:connector-curvature="0"
           sodipodi:nodetypes="szsccszssccccs" />
        <path
           id="path1488-5-7-6-6"
           style="display:inline;opacity:1;fill:#f7f7ef;fill-opacity:1;fill-rule:nonzero;stroke:none;stroke-width:0.26458335;stroke-linecap:butt;stroke-linejoin:miter;stroke-miterlimit:4;stroke-dasharray:none;stroke-opacity:1;paint-order:normal"
           d="m 28.74775,86.762697 c -0.279834,0.09526 -0.59401,-0.121299 -0.713539,-0.08061 -0.119901,0.04082 -0.181783,0.333669 -0.181783,0.333669 l -0.117231,0.03993 -0.305992,-0.898839 0.117238,-0.03991 c 0,0 0.750048,0.563419 1.129319,0.434303 0.194186,-0.06611 0.19511,-0.311469 -0.01193,-0.375139 l -0.825903,-0.253976 c -0.869144,-0.267274 -0.833036,-1.089708 -0.188332,-1.309183 0.26162,-0.08906 0.463323,0.06129 0.52542,0.04015 0.09663,-0.0329 0.143667,-0.305368 0.143667,-0.305368 l 0.117238,-0.03991 0.305984,0.898821 -0.117231,0.03993 c 0,0 -0.559602,-0.580661 -0.915771,-0.45941 -0.260803,0.08879 -0.216408,0.347117 -0.06803,0.392745 l 1.11188,0.341919 c 0.499774,0.153688 0.500091,1.068935 -0.005,1.240883 z"
           inkscape:connector-curvature="0"
           sodipodi:nodetypes="ssccccsssssccccssss" />
        <g
           style="fill:#f7f7ef;fill-opacity:1;stroke-width:3.0802865"
           id="g64262"
           transform="matrix(0.32464513,0,0,0.32464513,-12.102851,66.932038)">
          <path
             inkscape:export-ydpi="26.780001"
             inkscape:export-xdpi="26.780001"
             sodipodi:nodetypes="ccc"
             inkscape:connector-curvature="0"
             d="m 103.65419,31.538118 c -2.88165,2.643515 -2.35602,7.916766 0.73503,5.808568 -1.61975,0.102178 -2.36248,-4.098756 -0.73503,-5.808568 z"
             style="opacity:1;vector-effect:none;fill:#f7f7ef;fill-opacity:1;fill-rule:evenodd;stroke:none;stroke-width:0.81499237px;stroke-linecap:butt;stroke-linejoin:miter;stroke-miterlimit:4;stroke-dasharray:none;stroke-dashoffset:0;stroke-opacity:1"
             id="path867-3" />
          <path
             inkscape:export-ydpi="26.780001"
             inkscape:export-xdpi="26.780001"
             sodipodi:nodetypes="ccc"
             inkscape:connector-curvature="0"
             id="path867-6"
             d="m 110.51908,32.290836 c 3.49083,1.580498 4.41351,5.902678 -1.55155,7.803946 2.99049,-2.426073 2.26896,-5.538467 1.55155,-7.803946 z"
             style="opacity:1;vector-effect:none;fill:#f7f7ef;fill-opacity:1;fill-rule:evenodd;stroke:none;stroke-width:0.81499237px;stroke-linecap:butt;stroke-linejoin:miter;stroke-miterlimit:4;stroke-dasharray:none;stroke-dashoffset:0;stroke-opacity:1" />
          <path
             inkscape:export-ydpi="26.780001"
             inkscape:export-xdpi="26.780001"
             sodipodi:nodetypes="ccc"
             inkscape:connector-curvature="0"
             id="path867-6-5-3"
             d="m 103.34805,46.631644 c 4.53364,-1.574932 4.63654,2.958605 10.25596,0.07283 -4.30864,4.726751 -5.1891,1.273996 -10.25596,-0.07283 z"
             style="opacity:1;vector-effect:none;fill:#f7f7ef;fill-opacity:1;fill-rule:evenodd;stroke:none;stroke-width:0.81499237px;stroke-linecap:butt;stroke-linejoin:miter;stroke-miterlimit:4;stroke-dasharray:none;stroke-dashoffset:0;stroke-opacity:1" />
        </g>
      </g>
    </g>
  </g>
</svg>
