<svg version="1" xmlns="http://www.w3.org/2000/svg" width="933.333" height="933.333" viewBox="0 0 700.000000 700.000000"><path d="M339.8 34.5c-.2.1-6.8.5-14.8.8-8 .4-15.4.8-16.5 1.1-1.1.2-4 .7-6.5 1-22.5 3.1-45.7 9.9-63.4 18.7-38 18.8-67.2 50.5-85 92.2-10.8 25.3-13.7 38.9-13.1 62.7.1 8.5.5 16.5.8 17.7.3 1.1.9 4.3 1.3 7 .4 2.6 2.1 9.3 3.9 14.8 13.3 41 42.4 55.9 81.6 41.5 18.3-6.8 33-16.9 42.3-29.2 8.1-10.7 11.6-20.8 11-32.2-.8-16.4-8.6-30.5-28.2-50.8-15.8-16.3-21-26.2-21.2-39.8-.1-8.9 1-13.9 5.1-22.4 2.9-5.7 10.6-16.1 15.1-20.2 17.8-16.1 43.9-25.6 68.3-24.9 39.8 1.1 63.7 26.3 73.9 77.9 1.4 6.6 2.7 15.5 3.1 19.6.4 4.1.9 8.8 1.1 10.5 1 6.3 1.2 47.3.3 52-.5 2.8-1.1 5.9-1.3 7-1.7 8.7-7.2 21.9-14.5 34.4-17.4 29.7-54.3 64.1-107.6 100.6-20.7 14.2-22.6 15.5-30.5 21.9-7.3 6-24.1 22.2-29 28.1-1.4 1.6-5.1 6.3-8.2 10.5-3.2 4.1-6.1 7.9-6.6 8.5-3 3.7-13.3 21.7-17.9 31.4-7.3 15.4-6.9 14.6-9.8 22.6-1.4 3.8-3 7.9-3.5 9-2.5 5.5-10.3 37.5-12.4 51-1.3 8.3-1.6 11.3-3.2 25-1 9.2-1.2 52.9-.2 59.9 1 7.6 2.3 10.7 6.4 15.5 4.2 5 8.7 6.9 16.9 7.2 7.8.4 10.2-3 10.5-14.6.3-14.9 1.2-20.8 4.4-28.6 4.6-11.3 11.3-16.2 22.2-16 8.2.1 15.9 2.6 40.9 13.3 34.8 14.9 77.2 29.7 95.5 33.3.8.2 3.3.8 5.5 1.3 2.2.6 6.3 1.4 9 1.8 2.8.3 5.3.8 5.7 1 1 .6 14.7 1.8 20.8 1.8 5.7 0 17.7-1.1 21.4-1.9 1.1-.3 3.2-.7 4.6-.9 18.8-3.1 43.9-15.3 60-29.2 23.9-20.7 42.6-49.9 52.8-82.9 8.1-25.9 11-58.8 6.8-76.8-4-17.2-13.6-27.9-23.5-26.4-6.8 1.1-10.9 6.6-14.7 19.8-8.1 28.3-17.5 41-37.9 50.9-14.6 7.2-25.8 9.3-49.5 9.4-22.8.1-29.3-.5-44-4.1-9.8-2.4-16.4-5-29-11.6-22.4-11.8-26.5-13.7-34-16.2-13.9-4.6-23-5.8-43.5-5.7-10.4 0-21.7.2-25 .4-8.5.6-12.2-.5-13-4-.8-3.7.4-6.6 6.7-16.5 17-26.6 31.9-40.1 52.6-47.7 8.3-3 9.8-3.4 19.2-5 11.6-2 15.2-2.2 39.5-2.5 13.8-.2 27.5-.6 30.5-.9 14.1-1.6 15.4-1.8 22-3.1 1.4-.3 4.1-.8 6-1.1 9.1-1.6 37.5-10.6 44-13.9 1.4-.7 5.9-2.9 10-4.9 26.4-12.5 49.3-29.8 67.6-51.1 18.3-21.3 32.1-49.6 35.9-73.8.3-1.7.9-5.7 1.4-8.7 1-5.7.7-37.3-.3-42.5-6.3-31.4-13.2-49.9-27.2-73.1-4.2-7-11-16.8-13.9-20-.5-.6-3-3.5-5.4-6.3C481.5 71.9 433.7 45.7 384 38c-4.1-.6-8.6-1.4-10-1.6-1.4-.2-7.2-.7-13-1-5.8-.3-12.9-.7-15.7-.8-2.9-.2-5.4-.2-5.5-.1zM212 103.2c-6.4 9.6-14.5 30.7-16.5 42.8-4.8 29.9-.8 62.3 10.5 85.6 7.6 15.8 17.7 24.9 28.7 26.2l4.4.5-3.7 2.5c-5.3 3.6-16.1 8.3-22.3 9.8-31 7.4-51.1-21.9-46.7-68.1 3.5-36.8 19.1-71.7 44.6-99.7 3.3-3.7 3.7-3.5 1 .4zm222.1 25.1c26.2 16.8 46 42.4 53 68.2 3.1 11.3 3.1 31.7.1 42.6-2.4 9-6.9 19-12 26.8-5.4 8.1-5.8 8.7-15.7 18.7-15.8 16-36.9 29.6-63 40.4-5.5 2.3-10.9 4.5-12 5-1.1.4-4.3 1.5-7.1 2.4-2.7.8-5.9 1.8-7 2.2-1 .4.1-1 2.6-3.1 23.3-20.1 41.3-46.6 49.5-72.9 3.1-10.3 4.2-15.4 6.4-30.8.7-5.4.6-31.2-.2-38.8-2.3-20.4-5.3-33.8-14.6-66.3l-2-6.8 8.2 4.4c4.5 2.4 10.7 6 13.8 8zm-162 382.2c10 .7 23.2 3.7 34.7 7.9 2.4.8 13.6 5.7 25 10.7 36.7 16.3 48.1 19.3 73.2 19.3 13.4 0 18.5-.4 27-2.2 11.5-2.5 29.9-8 31.4-9.3.6-.5 1.6-.9 2.3-.9.8 0 6.9-2.5 13.6-5.6 6.7-3.1 13.8-6.3 15.7-7.1l3.5-1.5-4.5 4.7c-20.4 21.3-34.4 33.6-50.4 44.5-9.6 6.4-18 10.5-28.9 14.2-7.7 2.5-11.2 3-21.2 3.4-21.9.6-31.4-2.5-82-27.7-47.5-23.5-63.3-30.2-91.5-38.7l-9.4-2.9 5.9-1.7c3.3-1 7.1-2.2 8.5-2.6 5.3-1.8 18.6-4 27.8-4.6 5.4-.4 9.9-.8 10.1-1 .2-.2.7-.1 1.1.1.4.3 4.1.7 8.1 1z"/></svg>